# xmcd
#
# Track frame offsets: 
#        150
#        19295
#        51715
#        64395
#        97405
#        144503
#        200269
#        227293
#        257549
#        294985
#
# Disc length: 4404 seconds
#
# Revision: 0
# Processed by: cddbd v1.5.2PL0 Copyright (c) Steve Scherf et al.
# Submitted via: ExactAudioCopy v1.0b6
#
DISCID=9611320a
DTITLE=Yehudi Menuhin - Yehudi: The Art of Menuhin (2016) [Violin Conc
DTITLE=ertos]
DYEAR=2016
DGENRE=Classical Violin
TTITLE0=Yehudi Menuhin: Bath Festival Orchestra - BACH: Violin Cocerto
TTITLE0=No. 1 In A minor,BWV 1041 - I. Allegro
TTITLE1=Yehudi Menuhin: Bath Festival Orchestra - BACH: Violin Concert
TTITLE1=o No. 2 In E, BWV 1042 - II. Adagio
TTITLE2=Yehudi Menuhin - Alberto Lysy: Camerata Lysy Gstaad - VIVALDI: 
TTITLE2=Four Seasons: Concerto In Gm, RV 315 "Summer" - "L'estate" - I
TTITLE2=II. Presto
TTITLE3=Yehudi Menuhin: Bath Festival Orchestra - VIOTTI: Violin Conce
TTITLE3=rto No. 22 In A Minor, G97 - II. Adagio
TTITLE4=Yehudi Menuhin - Wilhelm Furtwängler: Philharmonia Orchestra - 
TTITLE4=BEETHOVEN: Violin Concerto In D, Op.61 - III. Rondo: Allegro
TTITLE5=Yehudi Menuhin - Efrem Kurtz: Philharmonia Orchestra - MENDELSS
TTITLE5=OHN: Violin Concerto No. 2 In Em, Op.64 - I. Allegro Molto App
TTITLE5=assionato
TTITLE6=Yehudi Menuhin - Adrian Boult: Philharmonia Orchestra - MENDELS
TTITLE6=SOHN: Violin Concerto No. 1 In Dm - III. Allegro
TTITLE7=Yehudi Menuhin - Adrian Boult: Royal Philharminic Orchestra - T
TTITLE7=CHAIKOVSKY: Violin Concerto In D, Op.35 - II. Canzonetta: Anda
TTITLE7=nte
TTITLE8=Yehudi Menuhin - Rudolf Kempe: Berliner Philharmoniker - BRAHMS
TTITLE8=: Violin Concerto In D, Op.77 - III. Allegro giocoso, ma non t
TTITLE8=roppo vivace
TTITLE9=Yehudi Menuhin - Anatole Fistoulari: Philharmonia Orchestra - P
TTITLE9=AGANINI: Violin Concerto No. 2 In Bm, Op.7 - III. Rondo " La C
TTITLE9=ampanelle"
EXTD=
EXTT0=
EXTT1=
EXTT2=
EXTT3=
EXTT4=
EXTT5=
EXTT6=
EXTT7=
EXTT8=
EXTT9=
PLAYORDER=
